<svg xmlns="http://www.w3.org/2000/svg" viewBox="0 0 512 512" width="512" height="512" role="img" aria-label="Astar Technologies">
  <title>Astar Technologies</title>
  <defs>
    <linearGradient id="bg" x1="0" y1="0" x2="1" y2="1">
      <stop offset="0%" stop-color="#15161A"/>
      <stop offset="100%" stop-color="#0A0B0E"/>
    </linearGradient>
    <linearGradient id="gold" x1="0" y1="0" x2="1" y2="1">
      <stop offset="0%" stop-color="#FCD34D"/>
      <stop offset="55%" stop-color="#F5B400"/>
      <stop offset="100%" stop-color="#D97706"/>
    </linearGradient>
    <radialGradient id="glow" cx="50%" cy="50%" r="50%">
      <stop offset="0%" stop-color="#FCD34D" stop-opacity="0.55"/>
      <stop offset="100%" stop-color="#FCD34D" stop-opacity="0"/>
    </radialGradient>
  </defs>

  <!-- Circular seal -->
  <circle cx="256" cy="256" r="248" fill="url(#bg)"/>
  <circle cx="256" cy="256" r="216" fill="none" stroke="#FFFFFF" stroke-opacity="0.10" stroke-width="2"/>

  <!-- A graph edges (shifted left to make room for star superscript) -->
  <g stroke="#FFFFFF" stroke-width="26" stroke-linecap="square" stroke-linejoin="miter" fill="none">
    <line x1="104" y1="384" x2="208" y2="160"/>
    <line x1="208" y1="160" x2="312" y2="384"/>
    <line x1="148" y1="296" x2="268" y2="296"/>
  </g>

  <!-- Foot nodes -->
  <g fill="#FFFFFF">
    <rect x="84" y="364" width="40" height="40"/>
    <rect x="292" y="364" width="40" height="40"/>
  </g>

  <!-- A* star as superscript / exponent — top-right of A -->
  <g transform="translate(368 160)">
    <circle r="72" fill="url(#glow)"/>
    <circle r="60" fill="none" stroke="url(#gold)" stroke-width="4" opacity="0.7"/>
    <path d="M0 -68 L14.4 -14.4 L68 0 L14.4 14.4 L0 68 L-14.4 14.4 L-68 0 L-14.4 -14.4 Z"
          fill="url(#gold)" stroke="#92400E" stroke-width="2" stroke-linejoin="miter"/>
    <circle r="9" fill="#15161A"/>
  </g>
</svg>
